<?xml version="1.0" encoding="utf-8"?>
<!-- Generator: Adobe Illustrator 19.0.0, SVG Export Plug-In . SVG Version: 6.00 Build 0)  -->
<svg version="1.1" id="Layer_1" xmlns="http://www.w3.org/2000/svg" xmlns:xlink="http://www.w3.org/1999/xlink" x="0px" y="0px"
	 viewBox="-392.5 254 75 48" style="enable-background:new -392.5 254 75 48;" xml:space="preserve">
<style type="text/css">
	.st0{fill:none;stroke:#C6C6C6;stroke-width:1.5134;stroke-linecap:round;stroke-linejoin:round;stroke-miterlimit:10;}
	.st1{fill:none;stroke:#C6C6C6;stroke-width:2;stroke-linecap:round;stroke-linejoin:round;stroke-miterlimit:10;}
</style>
<g id="XMLID_219_">
	<path id="XMLID_228_" class="st0" d="M-377.4,300.5"/>
	<path id="XMLID_227_" class="st0" d="M-376.3,277.7"/>
	<path id="XMLID_226_" class="st0" d="M-377.5,279.2c0.2,2.6-0.5,3.9-2,4.8c-1.6,0.9-1.6,2.5-1.6,2.5V300c0,0.3-0.2,0.5-0.5,0.5
		h-2.1c-0.3,0-0.5-0.2-0.5-0.5v-30.6c1.1-8,7.8-8.2,7.8-8.2h38.3c1.5,0,2.9-1.8,2.9-1.8c1.1-1.3,3.3-1.3,3.3-1.3h2
		c1.6,0,2.2,0.7,2.2,0.7l8.6,8.8c0.3,0.3,0.4,0.7,0.2,1c-0.4,1-1.7,2.9-5.1,2.3c-4.5-0.8-6.6,1.3-6.6,1.3
		c-4.2,5.5-10.7,10.8-12.6,12.2c-0.3,0.2-0.5,0.6-0.5,1V300c0,0.3-0.2,0.5-0.5,0.5h-2.1"/>
	<path id="XMLID_225_" class="st0" d="M-360.8,292.2"/>
	<path id="XMLID_224_" class="st1" d="M-391.2,283c3.3-1.4,2.7-4.7,2.7-4.7v-9.2c0-4.3,3.1-6.4,3.1-6.4"/>
	<path id="XMLID_223_" class="st0" d="M-330.1,255.1c0,1.7-2.3,3-2.3,3"/>
	<path id="XMLID_222_" class="st0" d="M-327,255.1c0,1.7-2.3,3-2.3,3"/>
	<path id="XMLID_221_" class="st0" d="M-334.4,263.8c-0.5-2-3.7-2.6-3.7-2.6"/>
	<path id="XMLID_220_" class="st0" d="M-377.4,300.6h2.1c0.3,0,0.5-0.2,0.5-0.5v-14.3c0-0.6,0.3-1,0.7-1.3c0.9-0.5,2.4-1.6,3.3-3.5
		c0.2-0.5,0.9-0.3,1,0.1c0.5,1.6,1.8,3.9,4.8,3.9h10.5c0.2,0,0.4,0.2,0.4,0.4v14.7c0,0.3,0.2,0.5,0.5,0.5h3.1c0.3,0,0.5-0.2,0.5-0.5
		v-13.5c0,0-0.1-1.6,1.5-2.5c1.5-0.9,2-2.3,1.9-4.9"/>
</g>
</svg>
